<svg xmlns="http://www.w3.org/2000/svg" viewBox="0 0 1024 1024">
  <rect width="1024" height="1024" fill="#ffffff" />
  <g transform="translate(112.64 112.64) scale(0.78)">
    <path
      d="M511.764091 131.708086a446.145957 446.145957 0 1 0 446.145957 446.145957 446.145957 446.145957 0 0 0-446.145957-446.145957z m0 519.76004A71.829499 71.829499 0 1 1 583.59359 580.530919 72.275645 72.275645 0 0 1 511.764091 651.468126z"
      fill="#F55E55"
    />
    <path
      d="M802.205109 0.541175l-168.197026 37.030114a67.814185 67.814185 0 0 0-53.091369 66.029602V223.614153l3.569168 349.778431h114.213365V223.614153h108.859613a26.322611 26.322611 0 0 0 26.768758-26.322611V26.863786a26.768757 26.768757 0 0 0-32.122509-26.322611z"
      fill="#F9BBB8"
    />
    <path
      d="M511.764091 386.457428a186.935156 186.935156 0 1 0 186.935156 186.48901A186.935156 186.935156 0 0 0 511.764091 386.457428z m0 264.564552a71.383353 71.383353 0 1 1 71.383353-71.383353 71.383353 71.383353 0 0 1-71.383353 71.383353z"
      fill="#F9BBB8"
    />
  </g>
</svg>
